<svg viewBox="0 0 50 50" xml:space="preserve" xmlns="http://www.w3.org/2000/svg"><path clip-rule="evenodd" d="m17.804 16.668 6.295-3.634c1.048-.597 2.919-.099 3.363 1.064 1.022 2.641 2 5.332 2.955 8.048l-3.901 2.295 1.249 2.13 3.483-2.048 2.075 6.064c1.688 4.961 3.378 9.922 5.22 14.808L29.088 34.27l2.967-1.745-1.249-2.13-3.342 1.964-7.574-8.912 3.543-2.052-1.239-2.139-3.932 2.276c-.37-.435-1.121-1.206-1.38-1.66-.618-1.071-.076-2.585.922-3.204m4.902-6.058-.465.269c-.223-3.648.069-6.906.567-10.494L20.032 0c-.439 3.167-.734 6.109-.659 9.329l-4.509-7.815-2.424 1.394 4.467 7.742c-2.695-1.66-5.448-2.875-8.405-4.001l-.999 2.622c3.397 1.293 6.377 2.66 9.386 4.698l-.447.258c-2.237 1.297-3.594 5.151-1.85 7.206L38.778 50l3.719-2.138-12.423-34.773c-1.074-2.777-4.828-3.94-7.368-2.479z" fill-rule="evenodd" fill="#6d7070" class="fill-000000"></path></svg>