<svg viewBox="0 0 512 512" xml:space="preserve" xmlns="http://www.w3.org/2000/svg"><path d="M406.1 112.8c-.3-3.7-3.2-6.6-6.9-6.9L257.9 94.4c-2.2-.2-4.4.6-5.9 2.2L96.6 252c-1.4 1.4-2.2 3.3-2.2 5.3s.8 3.9 2.2 5.3l152.8 152.8c1.5 1.5 3.4 2.2 5.3 2.2s3.8-.7 5.3-2.2L415.4 260c1.6-1.6 2.4-3.7 2.2-5.9l-11.5-141.3zM254.7 399.5 112.5 257.3l147.6-147.6 131.5 10.7 10.7 131.5-147.6 147.6z" fill="#585c5c" class="fill-000000"></path><path d="M349.8 133c-7.8 0-15.1 3-20.7 8.6-11.4 11.4-11.4 29.9 0 41.3 5.5 5.5 12.9 8.6 20.7 8.6 7.8 0 15.1-3 20.7-8.6 11.4-11.4 11.4-29.9 0-41.3-5.6-5.5-12.9-8.6-20.7-8.6zm10 39.3c-2.7 2.7-6.3 4.2-10.1 4.2s-7.4-1.5-10.1-4.2c-5.5-5.5-5.5-14.6 0-20.1 2.7-2.7 6.3-4.2 10.1-4.2s7.4 1.5 10.1 4.2c5.6 5.5 5.6 14.5 0 20.1zM241.4 200.9c-2.9-2.9-7.7-2.9-10.6 0l-61.5 61.5c-2.9 2.9-2.9 7.7 0 10.6 1.5 1.5 3.4 2.2 5.3 2.2s3.8-.7 5.3-2.2l61.5-61.5c2.9-2.9 2.9-7.6 0-10.6zM276.2 235.8c-2.9-2.9-7.7-2.9-10.6 0l-61.5 61.5c-2.9 2.9-2.9 7.7 0 10.6 1.5 1.5 3.4 2.2 5.3 2.2s3.8-.7 5.3-2.2l61.5-61.5c3-3 3-7.7 0-10.6zM300.5 270.6 239 332.1c-2.9 2.9-2.9 7.7 0 10.6 1.5 1.5 3.4 2.2 5.3 2.2s3.8-.7 5.3-2.2l61.5-61.5c2.9-2.9 2.9-7.7 0-10.6-3-2.9-7.7-2.9-10.6 0z" fill="#585c5c" class="fill-000000"></path></svg>